<svg width="40" height="40" viewBox="0 0 40 40" fill="none" xmlns="http://www.w3.org/2000/svg">
<path d="M32.35 21.6666C31.9834 21.6666 31.6 21.55 31.2334 21.4666C30.4914 21.3007 29.7619 21.0836 29.05 20.8166C28.2769 20.5354 27.427 20.55 26.6639 20.8577C25.9008 21.1653 25.2785 21.7444 24.9167 22.4833L24.55 23.25C22.9314 22.332 21.4361 21.2119 20.1 19.9166C18.8048 18.5806 17.6847 17.0853 16.7667 15.4666L17.5334 15.1166C18.2723 14.7548 18.8513 14.1325 19.159 13.3695C19.4667 12.6064 19.4813 11.7565 19.2 10.9833C18.9354 10.265 18.7182 9.53011 18.55 8.78331C18.4667 8.41665 18.4 8.03331 18.35 7.66665C18.1477 6.49268 17.5328 5.42955 16.6161 4.66871C15.6994 3.90787 14.5412 3.49933 13.35 3.51665H8.33338C7.62879 3.51572 6.93196 3.66373 6.28857 3.95095C5.64519 4.23818 5.06977 4.65814 4.60004 5.18331C4.12058 5.72274 3.76357 6.35956 3.55355 7.05004C3.34353 7.74052 3.28547 8.46827 3.38338 9.18331C4.28935 16.1202 7.45873 22.5644 12.4 27.5166C17.3523 32.458 23.7965 35.6273 30.7334 36.5333C30.9497 36.5498 31.167 36.5498 31.3834 36.5333C32.6124 36.5351 33.799 36.0842 34.7167 35.2666C35.2419 34.7969 35.6618 34.2215 35.9491 33.5781C36.2363 32.9347 36.3843 32.2379 36.3834 31.5333V26.5333C36.3744 25.3817 35.9681 24.2685 35.2333 23.3818C34.4984 22.4951 33.48 21.8893 32.35 21.6666ZM33.1667 31.6666C33.1662 31.8992 33.1169 32.1291 33.0222 32.3415C32.9275 32.5539 32.7894 32.7442 32.6167 32.9C32.434 33.0664 32.2167 33.1901 31.9803 33.2622C31.7439 33.3343 31.4945 33.3529 31.25 33.3166C25.0305 32.5044 19.2505 29.67 14.8 25.25C10.3458 20.7958 7.48676 14.9956 6.66671 8.74998C6.6305 8.50554 6.6491 8.2561 6.72117 8.01973C6.79323 7.78336 6.91695 7.56598 7.08338 7.38331C7.24108 7.20857 7.43401 7.06921 7.64946 6.97441C7.86491 6.87961 8.098 6.83152 8.33338 6.83331H13.3334C13.7186 6.8239 14.0953 6.94829 14.3992 7.18531C14.703 7.42234 14.9154 7.75734 15 8.13331C15 8.58331 15.15 9.04998 15.25 9.49998C15.4427 10.3731 15.6989 11.2309 16.0167 12.0666L13.6834 13.1666C13.2823 13.3508 12.9706 13.6864 12.8167 14.1C12.65 14.5057 12.65 14.9609 12.8167 15.3666C15.2154 20.5046 19.3455 24.6346 24.4834 27.0333C24.8891 27.2 25.3443 27.2 25.75 27.0333C26.1636 26.8794 26.4993 26.5677 26.6834 26.1666L27.7334 23.8333C28.5932 24.1468 29.4729 24.403 30.3667 24.6C30.8 24.7 31.2667 24.7833 31.7167 24.85C32.0927 24.9346 32.4277 25.147 32.6647 25.4509C32.9017 25.7547 33.0261 26.1314 33.0167 26.5166L33.1667 31.6666ZM23.3334 3.33331C22.95 3.33331 22.55 3.33331 22.1667 3.33331C21.7247 3.37089 21.3157 3.58251 21.0297 3.92164C20.7437 4.26077 20.6041 4.69962 20.6417 5.14165C20.6793 5.58367 20.8909 5.99267 21.23 6.27866C21.5692 6.56466 22.008 6.70422 22.45 6.66665H23.3334C25.9855 6.66665 28.5291 7.72021 30.4044 9.59558C32.2798 11.4709 33.3334 14.0145 33.3334 16.6666C33.3334 16.9666 33.3334 17.25 33.3334 17.55C33.2964 17.9897 33.4353 18.4261 33.7196 18.7635C34.004 19.1009 34.4105 19.3118 34.85 19.35H34.9834C35.4006 19.3517 35.8033 19.1968 36.1119 18.916C36.4205 18.6352 36.6125 18.2488 36.65 17.8333C36.65 17.45 36.65 17.05 36.65 16.6666C36.65 13.1333 35.2476 9.74445 32.7507 7.24444C30.2538 4.74444 26.8667 3.33773 23.3334 3.33331V3.33331ZM26.6667 16.6666C26.6667 17.1087 26.8423 17.5326 27.1549 17.8452C27.4674 18.1577 27.8913 18.3333 28.3334 18.3333C28.7754 18.3333 29.1993 18.1577 29.5119 17.8452C29.8244 17.5326 30 17.1087 30 16.6666C30 14.8985 29.2977 13.2028 28.0474 11.9526C26.7972 10.7024 25.1015 9.99998 23.3334 9.99998C22.8913 9.99998 22.4674 10.1756 22.1549 10.4881C21.8423 10.8007 21.6667 11.2246 21.6667 11.6666C21.6667 12.1087 21.8423 12.5326 22.1549 12.8452C22.4674 13.1577 22.8913 13.3333 23.3334 13.3333C24.2174 13.3333 25.0653 13.6845 25.6904 14.3096C26.3155 14.9347 26.6667 15.7826 26.6667 16.6666Z" fill="#EFF4FE"/>
</svg>
