<svg width="41" height="40" viewBox="0 0 41 40" fill="none" xmlns="http://www.w3.org/2000/svg">
<path d="M32.1666 11.6666H27.1666V9.99998C27.1666 8.23187 26.4642 6.53618 25.214 5.28593C23.9638 4.03569 22.2681 3.33331 20.5 3.33331C18.7318 3.33331 17.0362 4.03569 15.7859 5.28593C14.5357 6.53618 13.8333 8.23187 13.8333 9.99998V11.6666H8.83329C8.39127 11.6666 7.96734 11.8422 7.65478 12.1548C7.34222 12.4674 7.16663 12.8913 7.16663 13.3333V31.6666C7.16663 32.9927 7.69341 34.2645 8.63109 35.2022C9.56877 36.1399 10.8405 36.6666 12.1666 36.6666H28.8333C30.1594 36.6666 31.4311 36.1399 32.3688 35.2022C33.3065 34.2645 33.8333 32.9927 33.8333 31.6666V13.3333C33.8333 12.8913 33.6577 12.4674 33.3451 12.1548C33.0326 11.8422 32.6087 11.6666 32.1666 11.6666ZM17.1666 9.99998C17.1666 9.11592 17.5178 8.26808 18.1429 7.64296C18.7681 7.01784 19.6159 6.66665 20.5 6.66665C21.384 6.66665 22.2319 7.01784 22.857 7.64296C23.4821 8.26808 23.8333 9.11592 23.8333 9.99998V11.6666H17.1666V9.99998ZM30.5 31.6666C30.5 32.1087 30.3244 32.5326 30.0118 32.8452C29.6992 33.1577 29.2753 33.3333 28.8333 33.3333H12.1666C11.7246 33.3333 11.3007 33.1577 10.9881 32.8452C10.6756 32.5326 10.5 32.1087 10.5 31.6666V15H13.8333V16.6666C13.8333 17.1087 14.0089 17.5326 14.3214 17.8452C14.634 18.1577 15.0579 18.3333 15.5 18.3333C15.942 18.3333 16.3659 18.1577 16.6785 17.8452C16.991 17.5326 17.1666 17.1087 17.1666 16.6666V15H23.8333V16.6666C23.8333 17.1087 24.0089 17.5326 24.3214 17.8452C24.634 18.1577 25.0579 18.3333 25.5 18.3333C25.942 18.3333 26.3659 18.1577 26.6785 17.8452C26.991 17.5326 27.1666 17.1087 27.1666 16.6666V15H30.5V31.6666Z" fill="#EFF4FE"/>
</svg>
