<svg width="40" height="40" viewBox="0 0 40 40" fill="none" xmlns="http://www.w3.org/2000/svg">
<path d="M31.6667 10H26.6667V8.33333C26.6667 7.44928 26.3155 6.60143 25.6904 5.97631C25.0653 5.35119 24.2174 5 23.3334 5H16.6667C15.7827 5 14.9348 5.35119 14.3097 5.97631C13.6846 6.60143 13.3334 7.44928 13.3334 8.33333V10H8.33337C7.00729 10 5.73552 10.5268 4.79784 11.4645C3.86016 12.4021 3.33337 13.6739 3.33337 15V30C3.33337 31.3261 3.86016 32.5979 4.79784 33.5355C5.73552 34.4732 7.00729 35 8.33337 35H31.6667C32.9928 35 34.2646 34.4732 35.2022 33.5355C36.1399 32.5979 36.6667 31.3261 36.6667 30V15C36.6667 13.6739 36.1399 12.4021 35.2022 11.4645C34.2646 10.5268 32.9928 10 31.6667 10ZM16.6667 8.33333H23.3334V10H16.6667V8.33333ZM33.3334 30C33.3334 30.442 33.1578 30.866 32.8452 31.1785C32.5327 31.4911 32.1087 31.6667 31.6667 31.6667H8.33337C7.89135 31.6667 7.46742 31.4911 7.15486 31.1785C6.8423 30.866 6.66671 30.442 6.66671 30V20.65L14.4667 23.3333C14.6437 23.3573 14.8231 23.3573 15 23.3333H25C25.1808 23.33 25.3602 23.302 25.5334 23.25L33.3334 20.65V30ZM33.3334 17.1333L24.7334 20H15.2667L6.66671 17.1333V15C6.66671 14.558 6.8423 14.134 7.15486 13.8215C7.46742 13.5089 7.89135 13.3333 8.33337 13.3333H31.6667C32.1087 13.3333 32.5327 13.5089 32.8452 13.8215C33.1578 14.134 33.3334 14.558 33.3334 15V17.1333Z" fill="#EFF4FE"/>
</svg>
