<svg width="1803" height="1583" viewBox="0 0 1803 1583" fill="none" xmlns="http://www.w3.org/2000/svg">
<g filter="url(#filter0_f)">
<path d="M454.456 1475.17C335.909 1423.22 315.56 1281.79 358.491 1084.48C413.459 895.138 457.015 658.456 575.562 710.411C694.109 762.367 808.629 905.335 758.454 1097.1C708.279 1288.87 573.003 1527.13 454.456 1475.17Z" fill="url(#paint0_linear)"/>
<path d="M398.483 1436.19C285.205 1374.72 278.048 1232.17 339.113 1039.13C411.43 855.006 476.768 622.792 590.046 684.26C703.325 745.729 804.15 897.534 736.383 1084.46C668.617 1271.39 511.761 1497.66 398.483 1436.19Z" fill="url(#paint1_linear)"/>
<path d="M346.338 1392.77C239.191 1322.26 245.281 1179.66 324.015 992.355C413.13 814.86 499.753 588.882 606.901 659.396C714.048 729.909 800.413 889.395 715.569 1070.06C630.726 1250.73 453.485 1463.29 346.338 1392.77Z" fill="url(#paint2_linear)"/>
<path d="M298.418 1345.25C198.217 1266.23 217.507 1124.67 313.311 944.526C418.547 775.006 525.796 556.984 625.997 636.006C726.197 715.028 797.444 880.982 696.17 1054.01C594.896 1227.04 398.618 1424.27 298.418 1345.25Z" fill="url(#paint3_linear)"/>
<path d="M255.087 1293.98C162.595 1207.05 194.939 1067.61 307.084 896.002C427.638 735.748 554.697 527.34 647.189 614.27C739.68 701.199 795.266 872.357 678.332 1036.43C561.398 1200.51 347.578 1380.91 255.087 1293.98Z" fill="url(#paint4_linear)"/>
<path d="M216.675 1239.36C132.597 1145.18 177.748 1008.92 305.379 847.153C440.336 697.383 586.238 500.177 670.316 594.352C754.394 688.527 793.897 863.587 662.193 1017.46C530.489 1171.33 300.753 1333.53 216.675 1239.36Z" fill="url(#paint5_linear)"/>
<path d="M183.474 1181.79C108.449 1081.09 166.064 949.05 308.211 798.349C456.543 660.205 620.177 475.701 695.202 576.404C770.227 677.108 793.346 854.738 647.874 997.235C502.403 1139.73 258.5 1282.5 183.474 1181.79Z" fill="url(#paint6_linear)"/>
<path d="M155.738 1121.73C90.3371 1015.27 159.977 888.448 315.558 749.964C476.136 624.496 656.257 454.098 721.658 560.564C787.059 667.03 793.618 845.878 635.486 975.916C477.354 1105.95 221.14 1228.2 155.738 1121.73Z" fill="url(#paint7_linear)"/>
<path d="M133.677 1059.63C78.3979 948.208 159.533 827.577 327.364 702.365C498.966 590.528 694.202 435.532 749.482 546.95C804.761 658.369 794.71 837.073 625.121 953.664C455.532 1070.25 188.957 1171.05 133.677 1059.63Z" fill="url(#paint8_linear)"/>
<path d="M117.46 995.95C72.7226 880.428 164.735 766.901 343.539 655.913C524.859 558.559 733.725 420.146 778.462 535.668C823.199 651.191 796.615 828.392 616.859 930.647C437.104 1032.9 162.197 1111.47 117.46 995.95Z" fill="url(#paint9_linear)"/>
<path d="M107.208 931.188C73.3543 812.44 175.544 706.883 363.96 610.964C553.618 528.832 774.525 408.055 808.379 526.803C842.233 645.55 799.317 819.9 610.764 907.041C422.21 994.182 141.063 1049.94 107.208 931.188Z" fill="url(#paint10_linear)"/>
<path d="M103.002 865.832C80.2883 744.763 191.878 647.978 388.472 567.858C585.024 501.575 816.29 399.353 839.004 520.422C861.717 641.491 802.797 811.661 606.88 883.025C410.963 954.39 125.716 986.901 103.002 865.832Z" fill="url(#paint11_linear)"/>
<path d="M104.872 800.38C93.4717 677.911 213.612 590.635 416.887 526.924C618.838 476.994 858.703 394.105 870.104 516.574C881.504 639.042 807.027 803.739 605.238 858.783C403.449 913.827 116.272 922.849 104.872 800.38Z" fill="url(#paint12_linear)"/>
<path d="M112.804 735.33C112.804 612.394 240.581 535.291 448.99 488.474C654.803 455.276 901.442 392.351 901.442 515.288C901.442 638.224 811.976 796.193 605.851 834.499C399.725 872.804 112.804 858.267 112.804 735.33Z" fill="url(#paint13_linear)"/>
<path d="M126.739 671.178C138.139 548.709 272.579 482.367 484.537 452.799C692.645 436.587 944.181 394.105 932.781 516.574C921.38 639.042 817.606 789.082 608.713 810.357C399.819 831.631 115.339 793.647 126.739 671.178Z" fill="url(#paint14_linear)"/>
<path d="M146.569 608.411C169.283 487.342 309.363 432.265 523.257 420.173C732.076 421.069 986.594 399.353 963.881 520.422C941.167 641.491 823.874 782.458 613.803 786.541C403.731 790.623 123.856 729.48 146.569 608.411Z" fill="url(#paint15_linear)"/>
<path d="M172.145 547.508C205.999 428.76 350.654 385.367 564.854 390.842C772.796 408.84 1028.36 408.055 994.505 526.803C960.651 645.55 830.733 776.374 621.082 763.233C411.431 750.092 138.29 666.255 172.145 547.508Z" fill="url(#paint16_linear)"/>
<path d="M203.27 488.931C248.008 373.409 396.136 342.03 609.014 365.03C814.495 399.993 1069.16 420.146 1024.42 535.668C979.685 651.191 838.129 770.874 630.495 740.61C422.861 710.345 158.533 604.454 203.27 488.931Z" fill="url(#paint17_linear)"/>
<path d="M239.71 433.127C294.989 321.709 445.464 302.583 655.399 342.933C856.856 394.595 1108.68 435.532 1053.4 546.95C998.123 658.369 846.007 766.001 641.97 718.844C437.932 671.686 184.43 544.545 239.71 433.127Z" fill="url(#paint18_linear)"/>
<path d="M281.185 380.52C346.587 274.054 498.262 267.328 703.656 324.721C899.556 392.688 1146.63 454.098 1081.23 560.564C1015.83 667.03 854.308 761.792 655.419 698.101C456.531 634.409 215.784 486.986 281.185 380.52Z" fill="url(#paint19_linear)"/>
<path d="M327.381 331.511C402.406 230.807 554.128 236.531 753.419 310.53C942.271 394.286 1182.71 475.701 1107.68 576.404C1032.66 677.108 862.966 758.279 670.741 678.538C478.516 598.797 252.356 432.215 327.381 331.511Z" fill="url(#paint20_linear)"/>
<path d="M377.946 286.472C462.025 192.297 612.638 210.427 804.309 300.47C984.675 399.377 1216.65 500.177 1132.57 594.352C1048.49 688.527 871.918 755.489 687.819 660.305C503.72 565.121 293.868 380.647 377.946 286.472Z" fill="url(#paint21_linear)"/>
<path d="M432.495 245.747C524.987 158.818 673.346 189.216 855.937 294.617C1026.44 407.922 1248.19 527.34 1155.7 614.27C1063.2 701.199 881.095 753.442 706.523 643.54C531.951 533.638 340.004 332.676 432.495 245.747Z" fill="url(#paint22_linear)"/>
<path d="M490.613 209.645C590.814 130.623 735.79 173.059 907.912 293.015C1067.26 419.856 1277.09 556.984 1176.89 636.006C1076.69 715.028 890.426 752.155 726.71 628.372C562.993 504.588 390.413 288.667 490.613 209.645Z" fill="url(#paint23_linear)"/>
<path d="M551.858 178.441C659.005 107.928 799.494 162.078 959.838 295.677C1106.82 435.089 1303.13 588.882 1195.98 659.396C1088.84 729.909 899.841 751.638 748.227 614.914C596.612 478.191 444.711 248.955 551.858 178.441Z" fill="url(#paint24_linear)"/>
<path d="M615.763 152.373C729.042 90.9047 863.975 156.357 1011.32 302.582C1144.82 453.503 1326.12 622.792 1212.84 684.26C1099.56 745.729 909.268 751.893 770.909 603.27C632.551 454.648 502.485 213.841 615.763 152.373Z" fill="url(#paint25_linear)"/>
<path d="M681.843 131.639C800.39 79.6835 928.74 155.939 1061.96 313.678C1180.96 474.96 1345.87 658.456 1227.32 710.411C1108.77 762.367 918.636 752.92 794.586 593.529C670.536 434.138 563.296 183.594 681.843 131.639Z" fill="url(#paint26_linear)"/>
<path d="M749.594 116.396C872.508 74.3494 993.298 160.829 1111.39 328.88C1214.97 499.296 1362.24 695.602 1239.33 737.649C1116.41 779.696 927.873 754.71 819.075 585.764C710.278 416.819 626.68 158.443 749.594 116.396Z" fill="url(#paint27_linear)"/>
<path d="M818.5 106.761C944.846 74.9431 1057.16 170.988 1159.21 348.073C1246.6 526.325 1375.1 733.948 1248.76 765.767C1122.41 797.585 936.909 757.25 844.192 580.035C751.475 402.82 692.155 138.58 818.5 106.761Z" fill="url(#paint28_linear)"/>
<path d="M888.038 102.808C1016.85 81.4602 1119.83 186.339 1205.08 371.111C1275.6 555.843 1384.36 773.202 1255.55 794.55C1126.73 815.897 945.674 760.52 869.744 576.385C793.814 392.25 759.222 124.156 888.038 102.808Z" fill="url(#paint29_linear)"/>
<path d="M957.677 104.565C1087.98 93.8508 1180.84 206.766 1248.63 397.817C1301.76 587.624 1389.95 813.065 1259.64 823.779C1129.34 834.494 954.104 764.496 895.537 574.842C836.971 385.187 827.373 115.28 957.677 104.565Z" fill="url(#paint30_linear)"/>
<path d="M1026.89 112.021C1157.69 112.021 1239.73 232.113 1289.54 427.99C1324.86 621.426 1391.81 853.233 1261.01 853.233C1130.21 853.233 962.132 769.148 921.376 575.418C880.619 381.687 896.087 112.021 1026.89 112.021Z" fill="url(#paint31_linear)"/>
<path d="M1095.15 125.117C1225.45 135.832 1296.04 262.187 1327.5 461.399C1344.75 656.992 1389.95 893.402 1259.64 882.687C1129.34 871.973 969.699 774.439 947.062 578.108C924.426 381.776 964.841 114.403 1095.15 125.117Z" fill="url(#paint32_linear)"/>
<path d="M1161.93 143.755C1290.74 165.103 1349.35 296.76 1362.21 497.79C1361.26 694.052 1384.36 933.265 1255.55 911.917C1126.73 890.569 976.746 780.33 972.402 582.892C968.058 385.453 1033.11 122.408 1161.93 143.755Z" fill="url(#paint33_linear)"/>
<path d="M1226.73 167.793C1353.07 199.611 1399.24 335.567 1393.42 536.887C1374.27 732.323 1375.1 972.519 1248.76 940.7C1122.41 908.882 983.219 786.776 997.201 589.733C1011.18 392.69 1100.38 135.974 1226.73 167.793Z" fill="url(#paint34_linear)"/>
<path d="M1289.05 197.047C1411.97 239.093 1445.35 378.314 1420.88 578.39C1383.68 771.515 1362.24 1010.86 1239.33 968.818C1116.41 926.771 989.071 793.728 1021.27 598.58C1053.47 403.432 1166.14 155 1289.05 197.047Z" fill="url(#paint35_linear)"/>
<path d="M1348.43 231.295C1466.98 283.25 1487.32 424.675 1444.39 621.986C1389.43 811.328 1345.87 1048.01 1227.32 996.055C1108.77 944.1 994.256 801.132 1044.43 609.364C1094.61 417.597 1229.88 179.339 1348.43 231.295Z" fill="url(#paint36_linear)"/>
<path d="M1404.4 270.276C1517.68 331.744 1524.84 474.299 1463.77 667.342C1391.45 851.461 1326.12 1083.67 1212.84 1022.21C1099.56 960.738 998.734 808.933 1066.5 622.005C1134.27 435.077 1291.12 208.808 1404.4 270.276Z" fill="url(#paint37_linear)"/>
<path d="M1456.55 313.694C1563.69 384.208 1557.6 526.806 1478.87 714.112C1389.75 891.607 1303.13 1117.58 1195.98 1047.07C1088.84 976.558 1002.47 817.071 1087.32 636.406C1172.16 455.74 1349.4 243.181 1456.55 313.694Z" fill="url(#paint38_linear)"/>
<path d="M1504.47 361.218C1604.67 440.24 1585.38 581.797 1489.57 761.941C1384.34 931.461 1277.09 1149.48 1176.89 1070.46C1076.69 991.439 1005.44 825.485 1106.71 652.457C1207.99 479.429 1404.27 282.196 1504.47 361.218Z" fill="url(#paint39_linear)"/>
<path d="M1547.8 412.487C1640.29 499.416 1607.95 638.854 1495.8 810.465C1375.25 970.719 1248.19 1179.13 1155.7 1092.2C1063.2 1005.27 1007.62 834.109 1124.55 670.036C1241.49 505.962 1455.31 325.558 1547.8 412.487Z" fill="url(#paint40_linear)"/>
<path d="M1586.21 467.11C1670.29 561.285 1625.14 697.543 1497.51 859.314C1362.55 1009.08 1216.65 1206.29 1132.57 1112.11C1048.49 1017.94 1008.99 842.88 1140.69 689.009C1272.4 535.138 1502.13 372.935 1586.21 467.11Z" fill="url(#paint41_linear)"/>
<path d="M1619.41 524.672C1694.44 625.376 1636.82 757.416 1494.67 908.117C1346.34 1046.26 1182.71 1230.77 1107.68 1130.06C1032.66 1029.36 1009.54 851.729 1155.01 709.232C1300.48 566.735 1544.38 423.968 1619.41 524.672Z" fill="url(#paint42_linear)"/>
<path d="M1647.15 584.734C1712.55 691.2 1642.91 818.019 1487.33 956.503C1326.75 1081.97 1146.63 1252.37 1081.23 1145.9C1015.83 1039.44 1009.27 860.589 1167.4 730.55C1325.53 600.512 1581.74 478.268 1647.15 584.734Z" fill="url(#paint43_linear)"/>
<path d="M1669.21 646.84C1724.49 758.258 1643.35 878.89 1475.52 1004.1C1303.92 1115.94 1108.68 1270.93 1053.4 1159.52C998.123 1048.1 1008.17 869.393 1177.76 752.803C1347.35 636.213 1613.93 535.422 1669.21 646.84Z" fill="url(#paint44_linear)"/>
<path d="M1685.42 710.516C1730.16 826.039 1638.15 939.566 1459.35 1050.55C1278.03 1147.91 1069.16 1286.32 1024.42 1170.8C979.685 1055.28 1006.27 878.075 1186.02 775.82C1365.78 673.565 1640.69 594.994 1685.42 710.516Z" fill="url(#paint45_linear)"/>
<path d="M1695.68 775.279C1729.53 894.027 1627.34 999.584 1438.92 1095.5C1249.27 1177.63 1028.36 1298.41 994.505 1179.66C960.651 1060.92 1003.57 886.567 1192.12 799.426C1380.67 712.285 1661.82 656.531 1695.68 775.279Z" fill="url(#paint46_linear)"/>
<path d="M1699.88 840.635C1722.6 961.704 1611.01 1058.49 1414.41 1138.61C1217.86 1204.89 986.594 1307.11 963.881 1186.05C941.167 1064.98 1000.09 894.806 1196 823.441C1391.92 752.077 1677.17 719.566 1699.88 840.635Z" fill="url(#paint47_linear)"/>
<path d="M1698.01 906.087C1709.41 1028.56 1589.27 1115.83 1386 1179.54C1184.05 1229.47 944.181 1312.36 932.781 1189.89C921.38 1067.42 995.857 902.728 1197.65 847.684C1399.44 792.639 1686.61 783.618 1698.01 906.087Z" fill="url(#paint48_linear)"/>
<path d="M1690.08 971.136C1690.08 1094.07 1562.3 1171.18 1353.89 1217.99C1148.08 1251.19 901.442 1314.12 901.442 1191.18C901.442 1068.24 990.908 910.274 1197.03 871.968C1403.16 833.663 1690.08 848.2 1690.08 971.136Z" fill="url(#paint49_linear)"/>
</g>
<defs>
<filter id="filter0_f" x="0.090332" y="0.0715332" width="1802.7" height="1582.34" filterUnits="userSpaceOnUse" color-interpolation-filters="sRGB">
<feFlood flood-opacity="0" result="BackgroundImageFix"/>
<feBlend mode="normal" in="SourceGraphic" in2="BackgroundImageFix" result="shape"/>
<feGaussianBlur stdDeviation="50" result="effect1_foregroundBlur"/>
</filter>
<linearGradient id="paint0_linear" x1="734.796" y1="1189.12" x2="347.933" y2="997.178" gradientUnits="userSpaceOnUse">
<stop stop-color="#FFA585"/>
<stop offset="1" stop-color="#FFEDA0"/>
</linearGradient>
<linearGradient id="paint1_linear" x1="704.283" y1="1174.19" x2="337.989" y2="949.177" gradientUnits="userSpaceOnUse">
<stop stop-color="#FFA585"/>
<stop offset="1" stop-color="#FFEDA0"/>
</linearGradient>
<linearGradient id="paint2_linear" x1="675.27" y1="1156.82" x2="332.266" y2="901.275" gradientUnits="userSpaceOnUse">
<stop stop-color="#FFA585"/>
<stop offset="1" stop-color="#FFEDA0"/>
</linearGradient>
<linearGradient id="paint3_linear" x1="647.979" y1="1137.13" x2="330.594" y2="853.777" gradientUnits="userSpaceOnUse">
<stop stop-color="#FFA585"/>
<stop offset="1" stop-color="#FFEDA0"/>
</linearGradient>
<linearGradient id="paint4_linear" x1="622.617" y1="1115.29" x2="332.802" y2="806.933" gradientUnits="userSpaceOnUse">
<stop stop-color="#FFA585"/>
<stop offset="1" stop-color="#FFEDA0"/>
</linearGradient>
<linearGradient id="paint5_linear" x1="599.376" y1="1091.45" x2="338.727" y2="760.949" gradientUnits="userSpaceOnUse">
<stop stop-color="#FFA585"/>
<stop offset="1" stop-color="#FFEDA0"/>
</linearGradient>
<linearGradient id="paint6_linear" x1="578.435" y1="1065.8" x2="348.226" y2="715.996" gradientUnits="userSpaceOnUse">
<stop stop-color="#FFA585"/>
<stop offset="1" stop-color="#FFEDA0"/>
</linearGradient>
<linearGradient id="paint7_linear" x1="559.952" y1="1038.54" x2="361.178" y2="672.221" gradientUnits="userSpaceOnUse">
<stop stop-color="#FFA585"/>
<stop offset="1" stop-color="#FFEDA0"/>
</linearGradient>
<linearGradient id="paint8_linear" x1="544.068" y1="1009.86" x2="377.486" y2="629.765" gradientUnits="userSpaceOnUse">
<stop stop-color="#FFA585"/>
<stop offset="1" stop-color="#FFEDA0"/>
</linearGradient>
<linearGradient id="paint9_linear" x1="530.904" y1="979.988" x2="397.073" y2="588.766" gradientUnits="userSpaceOnUse">
<stop stop-color="#FFA585"/>
<stop offset="1" stop-color="#FFEDA0"/>
</linearGradient>
<linearGradient id="paint10_linear" x1="520.559" y1="949.153" x2="419.88" y2="549.373" gradientUnits="userSpaceOnUse">
<stop stop-color="#FFA585"/>
<stop offset="1" stop-color="#FFEDA0"/>
</linearGradient>
<linearGradient id="paint11_linear" x1="513.114" y1="917.589" x2="445.857" y2="511.751" gradientUnits="userSpaceOnUse">
<stop stop-color="#FFA585"/>
<stop offset="1" stop-color="#FFEDA0"/>
</linearGradient>
<linearGradient id="paint12_linear" x1="508.624" y1="885.534" x2="474.956" y2="476.085" gradientUnits="userSpaceOnUse">
<stop stop-color="#FFA585"/>
<stop offset="1" stop-color="#FFEDA0"/>
</linearGradient>
<linearGradient id="paint13_linear" x1="507.123" y1="853.233" x2="507.123" y2="442.585" gradientUnits="userSpaceOnUse">
<stop stop-color="#FFA585"/>
<stop offset="1" stop-color="#FFEDA0"/>
</linearGradient>
<linearGradient id="paint14_linear" x1="508.624" y1="820.933" x2="542.292" y2="411.484" gradientUnits="userSpaceOnUse">
<stop stop-color="#FFA585"/>
<stop offset="1" stop-color="#FFEDA0"/>
</linearGradient>
<linearGradient id="paint15_linear" x1="513.114" y1="788.878" x2="580.371" y2="383.041" gradientUnits="userSpaceOnUse">
<stop stop-color="#FFA585"/>
<stop offset="1" stop-color="#FFEDA0"/>
</linearGradient>
<linearGradient id="paint16_linear" x1="520.559" y1="757.313" x2="621.238" y2="357.533" gradientUnits="userSpaceOnUse">
<stop stop-color="#FFA585"/>
<stop offset="1" stop-color="#FFEDA0"/>
</linearGradient>
<linearGradient id="paint17_linear" x1="530.904" y1="726.479" x2="664.734" y2="335.256" gradientUnits="userSpaceOnUse">
<stop stop-color="#FFA585"/>
<stop offset="1" stop-color="#FFEDA0"/>
</linearGradient>
<linearGradient id="paint18_linear" x1="544.068" y1="696.608" x2="710.65" y2="316.515" gradientUnits="userSpaceOnUse">
<stop stop-color="#FFA585"/>
<stop offset="1" stop-color="#FFEDA0"/>
</linearGradient>
<linearGradient id="paint19_linear" x1="559.952" y1="667.93" x2="758.726" y2="301.615" gradientUnits="userSpaceOnUse">
<stop stop-color="#FFA585"/>
<stop offset="1" stop-color="#FFEDA0"/>
</linearGradient>
<linearGradient id="paint20_linear" x1="578.435" y1="640.662" x2="808.644" y2="290.854" gradientUnits="userSpaceOnUse">
<stop stop-color="#FFA585"/>
<stop offset="1" stop-color="#FFEDA0"/>
</linearGradient>
<linearGradient id="paint21_linear" x1="599.376" y1="615.012" x2="860.026" y2="284.507" gradientUnits="userSpaceOnUse">
<stop stop-color="#FFA585"/>
<stop offset="1" stop-color="#FFEDA0"/>
</linearGradient>
<linearGradient id="paint22_linear" x1="622.617" y1="591.175" x2="912.432" y2="282.817" gradientUnits="userSpaceOnUse">
<stop stop-color="#FFA585"/>
<stop offset="1" stop-color="#FFEDA0"/>
</linearGradient>
<linearGradient id="paint23_linear" x1="647.979" y1="569.333" x2="965.364" y2="285.975" gradientUnits="userSpaceOnUse">
<stop stop-color="#FFA585"/>
<stop offset="1" stop-color="#FFEDA0"/>
</linearGradient>
<linearGradient id="paint24_linear" x1="675.27" y1="549.651" x2="1018.27" y2="294.109" gradientUnits="userSpaceOnUse">
<stop stop-color="#FFA585"/>
<stop offset="1" stop-color="#FFEDA0"/>
</linearGradient>
<linearGradient id="paint25_linear" x1="704.283" y1="532.279" x2="1070.58" y2="307.268" gradientUnits="userSpaceOnUse">
<stop stop-color="#FFA585"/>
<stop offset="1" stop-color="#FFEDA0"/>
</linearGradient>
<linearGradient id="paint26_linear" x1="734.796" y1="517.35" x2="1121.66" y2="325.411" gradientUnits="userSpaceOnUse">
<stop stop-color="#FFA585"/>
<stop offset="1" stop-color="#FFEDA0"/>
</linearGradient>
<linearGradient id="paint27_linear" x1="766.577" y1="504.977" x2="1170.9" y2="348.398" gradientUnits="userSpaceOnUse">
<stop stop-color="#FFA585"/>
<stop offset="1" stop-color="#FFEDA0"/>
</linearGradient>
<linearGradient id="paint28_linear" x1="799.385" y1="495.255" x2="1217.72" y2="375.991" gradientUnits="userSpaceOnUse">
<stop stop-color="#FFA585"/>
<stop offset="1" stop-color="#FFEDA0"/>
</linearGradient>
<linearGradient id="paint29_linear" x1="832.969" y1="488.257" x2="1261.55" y2="407.852" gradientUnits="userSpaceOnUse">
<stop stop-color="#FFA585"/>
<stop offset="1" stop-color="#FFEDA0"/>
</linearGradient>
<linearGradient id="paint30_linear" x1="867.075" y1="484.037" x2="1301.9" y2="443.561" gradientUnits="userSpaceOnUse">
<stop stop-color="#FFA585"/>
<stop offset="1" stop-color="#FFEDA0"/>
</linearGradient>
<linearGradient id="paint31_linear" x1="901.442" y1="482.627" x2="1338.37" y2="482.627" gradientUnits="userSpaceOnUse">
<stop stop-color="#FFA585"/>
<stop offset="1" stop-color="#FFEDA0"/>
</linearGradient>
<linearGradient id="paint32_linear" x1="935.809" y1="484.037" x2="1370.63" y2="524.514" gradientUnits="userSpaceOnUse">
<stop stop-color="#FFA585"/>
<stop offset="1" stop-color="#FFEDA0"/>
</linearGradient>
<linearGradient id="paint33_linear" x1="969.915" y1="488.257" x2="1398.49" y2="568.663" gradientUnits="userSpaceOnUse">
<stop stop-color="#FFA585"/>
<stop offset="1" stop-color="#FFEDA0"/>
</linearGradient>
<linearGradient id="paint34_linear" x1="1003.5" y1="495.255" x2="1421.83" y2="614.52" gradientUnits="userSpaceOnUse">
<stop stop-color="#FFA585"/>
<stop offset="1" stop-color="#FFEDA0"/>
</linearGradient>
<linearGradient id="paint35_linear" x1="1036.31" y1="504.977" x2="1440.63" y2="661.557" gradientUnits="userSpaceOnUse">
<stop stop-color="#FFA585"/>
<stop offset="1" stop-color="#FFEDA0"/>
</linearGradient>
<linearGradient id="paint36_linear" x1="1068.09" y1="517.35" x2="1454.95" y2="709.289" gradientUnits="userSpaceOnUse">
<stop stop-color="#FFA585"/>
<stop offset="1" stop-color="#FFEDA0"/>
</linearGradient>
<linearGradient id="paint37_linear" x1="1098.6" y1="532.279" x2="1464.9" y2="757.29" gradientUnits="userSpaceOnUse">
<stop stop-color="#FFA585"/>
<stop offset="1" stop-color="#FFEDA0"/>
</linearGradient>
<linearGradient id="paint38_linear" x1="1127.61" y1="549.651" x2="1470.62" y2="805.192" gradientUnits="userSpaceOnUse">
<stop stop-color="#FFA585"/>
<stop offset="1" stop-color="#FFEDA0"/>
</linearGradient>
<linearGradient id="paint39_linear" x1="1154.91" y1="569.333" x2="1472.29" y2="852.69" gradientUnits="userSpaceOnUse">
<stop stop-color="#FFA585"/>
<stop offset="1" stop-color="#FFEDA0"/>
</linearGradient>
<linearGradient id="paint40_linear" x1="1180.27" y1="591.175" x2="1470.08" y2="899.534" gradientUnits="userSpaceOnUse">
<stop stop-color="#FFA585"/>
<stop offset="1" stop-color="#FFEDA0"/>
</linearGradient>
<linearGradient id="paint41_linear" x1="1203.51" y1="615.012" x2="1464.16" y2="945.518" gradientUnits="userSpaceOnUse">
<stop stop-color="#FFA585"/>
<stop offset="1" stop-color="#FFEDA0"/>
</linearGradient>
<linearGradient id="paint42_linear" x1="1224.45" y1="640.662" x2="1454.66" y2="990.471" gradientUnits="userSpaceOnUse">
<stop stop-color="#FFA585"/>
<stop offset="1" stop-color="#FFEDA0"/>
</linearGradient>
<linearGradient id="paint43_linear" x1="1242.93" y1="667.93" x2="1441.71" y2="1034.25" gradientUnits="userSpaceOnUse">
<stop stop-color="#FFA585"/>
<stop offset="1" stop-color="#FFEDA0"/>
</linearGradient>
<linearGradient id="paint44_linear" x1="1258.82" y1="696.608" x2="1425.4" y2="1076.7" gradientUnits="userSpaceOnUse">
<stop stop-color="#FFA585"/>
<stop offset="1" stop-color="#FFEDA0"/>
</linearGradient>
<linearGradient id="paint45_linear" x1="1271.98" y1="726.479" x2="1405.81" y2="1117.7" gradientUnits="userSpaceOnUse">
<stop stop-color="#FFA585"/>
<stop offset="1" stop-color="#FFEDA0"/>
</linearGradient>
<linearGradient id="paint46_linear" x1="1282.32" y1="757.313" x2="1383" y2="1157.09" gradientUnits="userSpaceOnUse">
<stop stop-color="#FFA585"/>
<stop offset="1" stop-color="#FFEDA0"/>
</linearGradient>
<linearGradient id="paint47_linear" x1="1289.77" y1="788.878" x2="1357.03" y2="1194.72" gradientUnits="userSpaceOnUse">
<stop stop-color="#FFA585"/>
<stop offset="1" stop-color="#FFEDA0"/>
</linearGradient>
<linearGradient id="paint48_linear" x1="1294.26" y1="820.933" x2="1327.93" y2="1230.38" gradientUnits="userSpaceOnUse">
<stop stop-color="#FFA585"/>
<stop offset="1" stop-color="#FFEDA0"/>
</linearGradient>
<linearGradient id="paint49_linear" x1="1295.76" y1="853.233" x2="1295.76" y2="1263.88" gradientUnits="userSpaceOnUse">
<stop stop-color="#FFA585"/>
<stop offset="1" stop-color="#FFEDA0"/>
</linearGradient>
</defs>
</svg>
