<svg width="1440" height="1583" viewBox="0 0 1440 1583" fill="none" xmlns="http://www.w3.org/2000/svg">
<g filter="url(#filter0_f)">
<path d="M224.456 1475.17C105.909 1423.22 85.5597 1281.79 128.491 1084.48C183.459 895.138 227.015 658.456 345.562 710.411C464.109 762.367 578.629 905.335 528.454 1097.1C478.279 1288.87 343.003 1527.13 224.456 1475.17Z" fill="url(#paint0_linear)"/>
<path d="M168.483 1436.19C55.2047 1374.72 48.0481 1232.17 109.113 1039.13C181.43 855.006 246.768 622.792 360.046 684.26C473.325 745.729 574.15 897.534 506.383 1084.46C438.617 1271.39 281.761 1497.66 168.483 1436.19Z" fill="url(#paint1_linear)"/>
<path d="M116.338 1392.77C9.19078 1322.26 15.2807 1179.66 94.015 992.355C183.13 814.86 269.753 588.882 376.901 659.396C484.048 729.909 570.413 889.395 485.569 1070.06C400.726 1250.73 223.485 1463.29 116.338 1392.77Z" fill="url(#paint2_linear)"/>
<path d="M68.4176 1345.25C-31.783 1266.23 -12.4928 1124.67 83.3113 944.526C188.547 775.006 295.796 556.984 395.997 636.006C496.197 715.028 567.444 880.982 466.17 1054.01C364.896 1227.04 168.618 1424.27 68.4176 1345.25Z" fill="url(#paint3_linear)"/>
<path d="M25.0866 1293.98C-67.4047 1207.05 -35.0611 1067.61 77.0835 896.002C197.638 735.748 324.697 527.34 417.189 614.27C509.68 701.199 565.266 872.357 448.332 1036.43C331.398 1200.51 117.578 1380.91 25.0866 1293.98Z" fill="url(#paint4_linear)"/>
<path d="M-13.3252 1239.36C-97.4034 1145.18 -52.2525 1008.92 75.3792 847.153C210.336 697.383 356.238 500.177 440.316 594.352C524.394 688.527 563.897 863.587 432.193 1017.46C300.489 1171.33 70.7531 1333.53 -13.3252 1239.36Z" fill="url(#paint5_linear)"/>
<path d="M-46.5256 1181.79C-121.551 1081.09 -63.9362 949.05 78.2113 798.349C226.543 660.205 390.177 475.701 465.202 576.404C540.227 677.108 563.346 854.738 417.874 997.235C272.403 1139.73 28.4997 1282.5 -46.5256 1181.79Z" fill="url(#paint6_linear)"/>
<path d="M-74.2617 1121.73C-139.663 1015.27 -70.0231 888.448 85.5583 749.964C246.136 624.496 426.257 454.098 491.658 560.564C557.059 667.03 563.618 845.878 405.486 975.916C247.354 1105.95 -8.86041 1228.2 -74.2617 1121.73Z" fill="url(#paint7_linear)"/>
<path d="M-96.3226 1059.63C-151.602 948.208 -70.4672 827.577 97.3641 702.365C268.966 590.528 464.202 435.532 519.482 546.95C574.761 658.369 564.71 837.073 395.121 953.664C225.532 1070.25 -41.0431 1171.05 -96.3226 1059.63Z" fill="url(#paint8_linear)"/>
<path d="M-112.54 995.95C-157.277 880.428 -65.2648 766.901 113.539 655.913C294.859 558.559 503.725 420.146 548.462 535.668C593.199 651.191 566.615 828.392 386.859 930.647C207.104 1032.9 -67.8032 1111.47 -112.54 995.95Z" fill="url(#paint9_linear)"/>
<path d="M-122.792 931.188C-156.646 812.44 -54.4557 706.883 133.96 610.964C323.618 528.832 544.525 408.055 578.379 526.803C612.233 645.55 569.317 819.9 380.764 907.041C192.21 994.182 -88.9374 1049.94 -122.792 931.188Z" fill="url(#paint10_linear)"/>
<path d="M-126.998 865.832C-149.712 744.763 -38.1219 647.978 158.472 567.858C355.024 501.575 586.29 399.353 609.004 520.422C631.717 641.491 572.797 811.661 376.88 883.025C180.963 954.39 -104.284 986.901 -126.998 865.832Z" fill="url(#paint11_linear)"/>
<path d="M-125.128 800.38C-136.528 677.911 -16.3881 590.635 186.887 526.924C388.838 476.994 628.703 394.105 640.104 516.574C651.504 639.042 577.027 803.739 375.238 858.783C173.449 913.827 -113.728 922.849 -125.128 800.38Z" fill="url(#paint12_linear)"/>
<path d="M-117.196 735.33C-117.196 612.394 10.5806 535.291 218.99 488.474C424.803 455.276 671.442 392.351 671.442 515.288C671.442 638.224 581.976 796.193 375.851 834.499C169.725 872.804 -117.196 858.267 -117.196 735.33Z" fill="url(#paint13_linear)"/>
<path d="M-103.261 671.178C-91.8611 548.709 42.5788 482.367 254.537 452.799C462.645 436.587 714.181 394.105 702.781 516.574C691.38 639.042 587.606 789.082 378.713 810.357C169.819 831.631 -114.661 793.647 -103.261 671.178Z" fill="url(#paint14_linear)"/>
<path d="M-83.4308 608.411C-60.7172 487.342 79.3632 432.265 293.257 420.173C502.076 421.069 756.594 399.353 733.881 520.422C711.167 641.491 593.874 782.458 383.803 786.541C173.731 790.623 -106.144 729.48 -83.4308 608.411Z" fill="url(#paint15_linear)"/>
<path d="M-57.8554 547.508C-24.0012 428.76 120.654 385.367 334.854 390.842C542.796 408.84 798.36 408.055 764.505 526.803C730.651 645.55 600.733 776.374 391.082 763.233C181.431 750.092 -91.7096 666.255 -57.8554 547.508Z" fill="url(#paint16_linear)"/>
<path d="M-26.7296 488.931C18.0075 373.409 166.136 342.03 379.014 365.03C584.495 399.993 839.159 420.146 794.422 535.668C749.685 651.191 608.129 770.874 400.495 740.61C192.861 710.345 -71.4666 604.454 -26.7296 488.931Z" fill="url(#paint17_linear)"/>
<path d="M9.7097 433.127C64.9892 321.709 215.464 302.583 425.399 342.933C626.856 394.595 878.682 435.532 823.402 546.95C768.123 658.369 616.007 766.001 411.97 718.844C207.932 671.686 -45.5698 544.545 9.7097 433.127Z" fill="url(#paint18_linear)"/>
<path d="M51.1853 380.52C116.587 274.054 268.262 267.328 473.656 324.721C669.556 392.688 916.628 454.098 851.227 560.564C785.825 667.03 624.308 761.792 425.419 698.101C226.531 634.409 -14.216 486.986 51.1853 380.52Z" fill="url(#paint19_linear)"/>
<path d="M97.3812 331.511C172.406 230.807 324.128 236.531 523.419 310.53C712.271 394.286 952.708 475.701 877.682 576.404C802.657 677.108 632.966 758.279 440.741 678.538C248.516 598.797 22.356 432.215 97.3812 331.511Z" fill="url(#paint20_linear)"/>
<path d="M147.946 286.472C232.025 192.297 382.638 210.427 574.309 300.47C754.675 399.377 986.647 500.177 902.568 594.352C818.49 688.527 641.918 755.489 457.819 660.305C273.72 565.121 63.8681 380.647 147.946 286.472Z" fill="url(#paint21_linear)"/>
<path d="M202.495 245.747C294.987 158.818 443.346 189.216 625.937 294.617C796.445 407.922 1018.19 527.34 925.696 614.27C833.204 701.199 651.095 753.442 476.523 643.54C301.951 533.638 110.004 332.676 202.495 245.747Z" fill="url(#paint22_linear)"/>
<path d="M260.613 209.645C360.814 130.623 505.79 173.059 677.912 293.015C837.264 419.856 1047.09 556.984 946.888 636.006C846.687 715.028 660.426 752.155 496.71 628.372C332.993 504.588 160.413 288.667 260.613 209.645Z" fill="url(#paint23_linear)"/>
<path d="M321.858 178.441C429.005 107.928 569.494 162.078 729.838 295.677C876.821 435.089 1073.13 588.882 965.984 659.396C858.837 729.909 669.841 751.638 518.227 614.914C366.612 478.191 214.711 248.955 321.858 178.441Z" fill="url(#paint24_linear)"/>
<path d="M385.763 152.373C499.042 90.9047 633.975 156.357 781.319 302.582C914.815 453.503 1096.12 622.792 982.838 684.26C869.56 745.729 679.268 751.893 540.909 603.27C402.551 454.648 272.485 213.841 385.763 152.373Z" fill="url(#paint25_linear)"/>
<path d="M451.843 131.639C570.39 79.6835 698.74 155.939 831.964 313.678C950.957 474.96 1115.87 658.456 997.322 710.411C878.775 762.367 688.636 752.92 564.586 593.529C440.536 434.138 333.296 183.594 451.843 131.639Z" fill="url(#paint26_linear)"/>
<path d="M519.594 116.396C642.508 74.3494 763.298 160.829 881.387 328.88C984.971 499.296 1132.24 695.602 1009.33 737.649C886.412 779.696 697.873 754.71 589.075 585.764C480.278 416.819 396.68 158.443 519.594 116.396Z" fill="url(#paint27_linear)"/>
<path d="M588.5 106.761C714.846 74.9431 827.157 170.988 929.213 348.073C1016.6 526.325 1145.1 733.948 1018.76 765.767C892.413 797.585 706.909 757.25 614.192 580.035C521.475 402.82 462.155 138.58 588.5 106.761Z" fill="url(#paint28_linear)"/>
<path d="M658.038 102.808C786.853 81.4602 889.83 186.339 975.077 371.111C1045.6 555.843 1154.36 773.202 1025.55 794.55C896.733 815.897 715.674 760.52 639.744 576.385C563.814 392.25 529.222 124.156 658.038 102.808Z" fill="url(#paint29_linear)"/>
<path d="M727.677 104.565C857.982 93.8508 950.842 206.766 1018.63 397.817C1071.76 587.624 1159.95 813.065 1029.64 823.779C899.338 834.494 724.104 764.496 665.537 574.842C606.971 385.187 597.373 115.28 727.677 104.565Z" fill="url(#paint30_linear)"/>
<path d="M796.889 112.021C927.692 112.021 1009.73 232.113 1059.54 427.99C1094.86 621.426 1161.81 853.233 1031.01 853.233C900.208 853.233 732.132 769.148 691.376 575.418C650.619 381.687 666.087 112.021 796.889 112.021Z" fill="url(#paint31_linear)"/>
<path d="M865.146 125.117C995.451 135.832 1066.04 262.187 1097.5 461.399C1114.75 656.992 1159.95 893.402 1029.64 882.687C899.338 871.973 739.699 774.439 717.062 578.108C694.426 381.776 734.841 114.403 865.146 125.117Z" fill="url(#paint32_linear)"/>
<path d="M931.929 143.755C1060.74 165.103 1119.35 296.76 1132.21 497.79C1131.26 694.052 1154.36 933.265 1025.55 911.917C896.733 890.569 746.746 780.33 742.402 582.892C738.058 385.453 803.113 122.407 931.929 143.755Z" fill="url(#paint33_linear)"/>
<path d="M996.729 167.793C1123.07 199.611 1169.24 335.567 1163.42 536.887C1144.27 732.323 1145.1 972.519 1018.76 940.7C892.413 908.882 753.219 786.776 767.201 589.733C781.183 392.69 870.384 135.974 996.729 167.793Z" fill="url(#paint34_linear)"/>
<path d="M1059.05 197.047C1181.97 239.093 1215.35 378.314 1190.88 578.39C1153.68 771.515 1132.24 1010.86 1009.33 968.818C886.412 926.771 759.071 793.728 791.272 598.58C823.473 403.432 936.14 155 1059.05 197.047Z" fill="url(#paint35_linear)"/>
<path d="M1118.43 231.295C1236.98 283.25 1257.32 424.675 1214.39 621.986C1159.43 811.328 1115.87 1048.01 997.322 996.055C878.775 944.1 764.256 801.132 814.43 609.364C864.605 417.597 999.881 179.339 1118.43 231.295Z" fill="url(#paint36_linear)"/>
<path d="M1174.4 270.276C1287.68 331.744 1294.84 474.299 1233.77 667.342C1161.45 851.461 1096.12 1083.67 982.838 1022.21C869.56 960.738 768.734 808.933 836.501 622.005C904.268 435.077 1061.12 208.808 1174.4 270.276Z" fill="url(#paint37_linear)"/>
<path d="M1226.55 313.694C1333.69 384.208 1327.6 526.806 1248.87 714.112C1159.75 891.607 1073.13 1117.58 965.984 1047.07C858.837 976.558 772.472 817.071 857.315 636.406C942.158 455.74 1119.4 243.181 1226.55 313.694Z" fill="url(#paint38_linear)"/>
<path d="M1274.47 361.218C1374.67 440.24 1355.38 581.797 1259.57 761.941C1154.34 931.461 1047.09 1149.48 946.888 1070.46C846.687 991.439 775.441 825.485 876.715 652.457C977.989 479.429 1174.27 282.196 1274.47 361.218Z" fill="url(#paint39_linear)"/>
<path d="M1317.8 412.487C1410.29 499.416 1377.95 638.854 1265.8 810.465C1145.25 970.719 1018.19 1179.13 925.696 1092.2C833.204 1005.27 777.618 834.109 894.552 670.036C1011.49 505.962 1225.31 325.558 1317.8 412.487Z" fill="url(#paint40_linear)"/>
<path d="M1356.21 467.11C1440.29 561.285 1395.14 697.543 1267.51 859.314C1132.55 1009.08 986.647 1206.29 902.568 1112.11C818.49 1017.94 778.987 842.88 910.691 689.009C1042.4 535.138 1272.13 372.935 1356.21 467.11Z" fill="url(#paint41_linear)"/>
<path d="M1389.41 524.672C1464.44 625.376 1406.82 757.416 1264.67 908.117C1116.34 1046.26 952.708 1230.77 877.682 1130.06C802.657 1029.36 779.538 851.729 925.01 709.232C1070.48 566.735 1314.38 423.968 1389.41 524.672Z" fill="url(#paint42_linear)"/>
<path d="M1417.15 584.734C1482.55 691.2 1412.91 818.019 1257.33 956.503C1096.75 1081.97 916.628 1252.37 851.227 1145.9C785.825 1039.44 779.267 860.589 937.399 730.55C1095.53 600.512 1351.74 478.268 1417.15 584.734Z" fill="url(#paint43_linear)"/>
<path d="M1439.21 646.84C1494.49 758.258 1413.35 878.89 1245.52 1004.1C1073.92 1115.94 878.682 1270.93 823.402 1159.52C768.123 1048.1 778.174 869.393 947.763 752.803C1117.35 636.213 1383.93 535.422 1439.21 646.84Z" fill="url(#paint44_linear)"/>
<path d="M1455.42 710.516C1500.16 826.039 1408.15 939.566 1229.35 1050.55C1048.03 1147.91 839.159 1286.32 794.422 1170.8C749.685 1055.28 776.27 878.075 956.025 775.82C1135.78 673.565 1410.69 594.994 1455.42 710.516Z" fill="url(#paint45_linear)"/>
<path d="M1465.68 775.279C1499.53 894.027 1397.34 999.584 1208.92 1095.5C1019.27 1177.63 798.36 1298.41 764.505 1179.66C730.651 1060.92 773.567 886.567 962.121 799.426C1150.67 712.285 1431.82 656.531 1465.68 775.279Z" fill="url(#paint46_linear)"/>
<path d="M1469.88 840.635C1492.6 961.704 1381.01 1058.49 1184.41 1138.61C987.861 1204.89 756.594 1307.11 733.881 1186.05C711.167 1064.98 770.087 894.806 966.004 823.441C1161.92 752.077 1447.17 719.566 1469.88 840.635Z" fill="url(#paint47_linear)"/>
<path d="M1468.01 906.087C1479.41 1028.56 1359.27 1115.83 1156 1179.54C954.047 1229.47 714.181 1312.36 702.781 1189.89C691.38 1067.42 765.857 902.728 967.646 847.684C1169.44 792.639 1456.61 783.618 1468.01 906.087Z" fill="url(#paint48_linear)"/>
<path d="M1460.08 971.136C1460.08 1094.07 1332.3 1171.18 1123.89 1217.99C918.082 1251.19 671.442 1314.12 671.442 1191.18C671.442 1068.24 760.908 910.274 967.034 871.968C1173.16 833.663 1460.08 848.2 1460.08 971.136Z" fill="url(#paint49_linear)"/>
</g>
<defs>
<filter id="filter0_f" x="-229.91" y="0.0715332" width="1802.7" height="1582.34" filterUnits="userSpaceOnUse" color-interpolation-filters="sRGB">
<feFlood flood-opacity="0" result="BackgroundImageFix"/>
<feBlend mode="normal" in="SourceGraphic" in2="BackgroundImageFix" result="shape"/>
<feGaussianBlur stdDeviation="50" result="effect1_foregroundBlur"/>
</filter>
<linearGradient id="paint0_linear" x1="504.796" y1="1189.12" x2="117.933" y2="997.178" gradientUnits="userSpaceOnUse">
<stop stop-color="#FFA585"/>
<stop offset="1" stop-color="#FFEDA0"/>
</linearGradient>
<linearGradient id="paint1_linear" x1="474.283" y1="1174.19" x2="107.989" y2="949.177" gradientUnits="userSpaceOnUse">
<stop stop-color="#FFA585"/>
<stop offset="1" stop-color="#FFEDA0"/>
</linearGradient>
<linearGradient id="paint2_linear" x1="445.27" y1="1156.82" x2="102.266" y2="901.275" gradientUnits="userSpaceOnUse">
<stop stop-color="#FFA585"/>
<stop offset="1" stop-color="#FFEDA0"/>
</linearGradient>
<linearGradient id="paint3_linear" x1="417.979" y1="1137.13" x2="100.594" y2="853.777" gradientUnits="userSpaceOnUse">
<stop stop-color="#FFA585"/>
<stop offset="1" stop-color="#FFEDA0"/>
</linearGradient>
<linearGradient id="paint4_linear" x1="392.617" y1="1115.29" x2="102.802" y2="806.933" gradientUnits="userSpaceOnUse">
<stop stop-color="#FFA585"/>
<stop offset="1" stop-color="#FFEDA0"/>
</linearGradient>
<linearGradient id="paint5_linear" x1="369.376" y1="1091.45" x2="108.727" y2="760.949" gradientUnits="userSpaceOnUse">
<stop stop-color="#FFA585"/>
<stop offset="1" stop-color="#FFEDA0"/>
</linearGradient>
<linearGradient id="paint6_linear" x1="348.435" y1="1065.8" x2="118.226" y2="715.996" gradientUnits="userSpaceOnUse">
<stop stop-color="#FFA585"/>
<stop offset="1" stop-color="#FFEDA0"/>
</linearGradient>
<linearGradient id="paint7_linear" x1="329.952" y1="1038.54" x2="131.178" y2="672.221" gradientUnits="userSpaceOnUse">
<stop stop-color="#FFA585"/>
<stop offset="1" stop-color="#FFEDA0"/>
</linearGradient>
<linearGradient id="paint8_linear" x1="314.068" y1="1009.86" x2="147.486" y2="629.765" gradientUnits="userSpaceOnUse">
<stop stop-color="#FFA585"/>
<stop offset="1" stop-color="#FFEDA0"/>
</linearGradient>
<linearGradient id="paint9_linear" x1="300.904" y1="979.988" x2="167.073" y2="588.766" gradientUnits="userSpaceOnUse">
<stop stop-color="#FFA585"/>
<stop offset="1" stop-color="#FFEDA0"/>
</linearGradient>
<linearGradient id="paint10_linear" x1="290.559" y1="949.153" x2="189.88" y2="549.373" gradientUnits="userSpaceOnUse">
<stop stop-color="#FFA585"/>
<stop offset="1" stop-color="#FFEDA0"/>
</linearGradient>
<linearGradient id="paint11_linear" x1="283.114" y1="917.589" x2="215.857" y2="511.751" gradientUnits="userSpaceOnUse">
<stop stop-color="#FFA585"/>
<stop offset="1" stop-color="#FFEDA0"/>
</linearGradient>
<linearGradient id="paint12_linear" x1="278.624" y1="885.534" x2="244.956" y2="476.085" gradientUnits="userSpaceOnUse">
<stop stop-color="#FFA585"/>
<stop offset="1" stop-color="#FFEDA0"/>
</linearGradient>
<linearGradient id="paint13_linear" x1="277.123" y1="853.233" x2="277.123" y2="442.585" gradientUnits="userSpaceOnUse">
<stop stop-color="#FFA585"/>
<stop offset="1" stop-color="#FFEDA0"/>
</linearGradient>
<linearGradient id="paint14_linear" x1="278.624" y1="820.933" x2="312.292" y2="411.484" gradientUnits="userSpaceOnUse">
<stop stop-color="#FFA585"/>
<stop offset="1" stop-color="#FFEDA0"/>
</linearGradient>
<linearGradient id="paint15_linear" x1="283.114" y1="788.878" x2="350.371" y2="383.041" gradientUnits="userSpaceOnUse">
<stop stop-color="#FFA585"/>
<stop offset="1" stop-color="#FFEDA0"/>
</linearGradient>
<linearGradient id="paint16_linear" x1="290.559" y1="757.313" x2="391.238" y2="357.533" gradientUnits="userSpaceOnUse">
<stop stop-color="#FFA585"/>
<stop offset="1" stop-color="#FFEDA0"/>
</linearGradient>
<linearGradient id="paint17_linear" x1="300.904" y1="726.479" x2="434.734" y2="335.256" gradientUnits="userSpaceOnUse">
<stop stop-color="#FFA585"/>
<stop offset="1" stop-color="#FFEDA0"/>
</linearGradient>
<linearGradient id="paint18_linear" x1="314.068" y1="696.608" x2="480.65" y2="316.515" gradientUnits="userSpaceOnUse">
<stop stop-color="#FFA585"/>
<stop offset="1" stop-color="#FFEDA0"/>
</linearGradient>
<linearGradient id="paint19_linear" x1="329.952" y1="667.93" x2="528.726" y2="301.615" gradientUnits="userSpaceOnUse">
<stop stop-color="#FFA585"/>
<stop offset="1" stop-color="#FFEDA0"/>
</linearGradient>
<linearGradient id="paint20_linear" x1="348.435" y1="640.662" x2="578.644" y2="290.854" gradientUnits="userSpaceOnUse">
<stop stop-color="#FFA585"/>
<stop offset="1" stop-color="#FFEDA0"/>
</linearGradient>
<linearGradient id="paint21_linear" x1="369.376" y1="615.012" x2="630.026" y2="284.507" gradientUnits="userSpaceOnUse">
<stop stop-color="#FFA585"/>
<stop offset="1" stop-color="#FFEDA0"/>
</linearGradient>
<linearGradient id="paint22_linear" x1="392.617" y1="591.175" x2="682.432" y2="282.817" gradientUnits="userSpaceOnUse">
<stop stop-color="#FFA585"/>
<stop offset="1" stop-color="#FFEDA0"/>
</linearGradient>
<linearGradient id="paint23_linear" x1="417.979" y1="569.333" x2="735.364" y2="285.975" gradientUnits="userSpaceOnUse">
<stop stop-color="#FFA585"/>
<stop offset="1" stop-color="#FFEDA0"/>
</linearGradient>
<linearGradient id="paint24_linear" x1="445.27" y1="549.651" x2="788.274" y2="294.109" gradientUnits="userSpaceOnUse">
<stop stop-color="#FFA585"/>
<stop offset="1" stop-color="#FFEDA0"/>
</linearGradient>
<linearGradient id="paint25_linear" x1="474.283" y1="532.279" x2="840.576" y2="307.268" gradientUnits="userSpaceOnUse">
<stop stop-color="#FFA585"/>
<stop offset="1" stop-color="#FFEDA0"/>
</linearGradient>
<linearGradient id="paint26_linear" x1="504.796" y1="517.35" x2="891.658" y2="325.411" gradientUnits="userSpaceOnUse">
<stop stop-color="#FFA585"/>
<stop offset="1" stop-color="#FFEDA0"/>
</linearGradient>
<linearGradient id="paint27_linear" x1="536.577" y1="504.977" x2="940.905" y2="348.398" gradientUnits="userSpaceOnUse">
<stop stop-color="#FFA585"/>
<stop offset="1" stop-color="#FFEDA0"/>
</linearGradient>
<linearGradient id="paint28_linear" x1="569.385" y1="495.255" x2="987.72" y2="375.991" gradientUnits="userSpaceOnUse">
<stop stop-color="#FFA585"/>
<stop offset="1" stop-color="#FFEDA0"/>
</linearGradient>
<linearGradient id="paint29_linear" x1="602.969" y1="488.257" x2="1031.55" y2="407.852" gradientUnits="userSpaceOnUse">
<stop stop-color="#FFA585"/>
<stop offset="1" stop-color="#FFEDA0"/>
</linearGradient>
<linearGradient id="paint30_linear" x1="637.075" y1="484.037" x2="1071.9" y2="443.561" gradientUnits="userSpaceOnUse">
<stop stop-color="#FFA585"/>
<stop offset="1" stop-color="#FFEDA0"/>
</linearGradient>
<linearGradient id="paint31_linear" x1="671.442" y1="482.627" x2="1108.37" y2="482.627" gradientUnits="userSpaceOnUse">
<stop stop-color="#FFA585"/>
<stop offset="1" stop-color="#FFEDA0"/>
</linearGradient>
<linearGradient id="paint32_linear" x1="705.809" y1="484.037" x2="1140.63" y2="524.514" gradientUnits="userSpaceOnUse">
<stop stop-color="#FFA585"/>
<stop offset="1" stop-color="#FFEDA0"/>
</linearGradient>
<linearGradient id="paint33_linear" x1="739.915" y1="488.257" x2="1168.49" y2="568.663" gradientUnits="userSpaceOnUse">
<stop stop-color="#FFA585"/>
<stop offset="1" stop-color="#FFEDA0"/>
</linearGradient>
<linearGradient id="paint34_linear" x1="773.499" y1="495.255" x2="1191.83" y2="614.52" gradientUnits="userSpaceOnUse">
<stop stop-color="#FFA585"/>
<stop offset="1" stop-color="#FFEDA0"/>
</linearGradient>
<linearGradient id="paint35_linear" x1="806.307" y1="504.977" x2="1210.63" y2="661.557" gradientUnits="userSpaceOnUse">
<stop stop-color="#FFA585"/>
<stop offset="1" stop-color="#FFEDA0"/>
</linearGradient>
<linearGradient id="paint36_linear" x1="838.089" y1="517.35" x2="1224.95" y2="709.289" gradientUnits="userSpaceOnUse">
<stop stop-color="#FFA585"/>
<stop offset="1" stop-color="#FFEDA0"/>
</linearGradient>
<linearGradient id="paint37_linear" x1="868.602" y1="532.279" x2="1234.9" y2="757.29" gradientUnits="userSpaceOnUse">
<stop stop-color="#FFA585"/>
<stop offset="1" stop-color="#FFEDA0"/>
</linearGradient>
<linearGradient id="paint38_linear" x1="897.614" y1="549.651" x2="1240.62" y2="805.192" gradientUnits="userSpaceOnUse">
<stop stop-color="#FFA585"/>
<stop offset="1" stop-color="#FFEDA0"/>
</linearGradient>
<linearGradient id="paint39_linear" x1="924.905" y1="569.333" x2="1242.29" y2="852.69" gradientUnits="userSpaceOnUse">
<stop stop-color="#FFA585"/>
<stop offset="1" stop-color="#FFEDA0"/>
</linearGradient>
<linearGradient id="paint40_linear" x1="950.268" y1="591.175" x2="1240.08" y2="899.534" gradientUnits="userSpaceOnUse">
<stop stop-color="#FFA585"/>
<stop offset="1" stop-color="#FFEDA0"/>
</linearGradient>
<linearGradient id="paint41_linear" x1="973.508" y1="615.012" x2="1234.16" y2="945.518" gradientUnits="userSpaceOnUse">
<stop stop-color="#FFA585"/>
<stop offset="1" stop-color="#FFEDA0"/>
</linearGradient>
<linearGradient id="paint42_linear" x1="994.449" y1="640.662" x2="1224.66" y2="990.471" gradientUnits="userSpaceOnUse">
<stop stop-color="#FFA585"/>
<stop offset="1" stop-color="#FFEDA0"/>
</linearGradient>
<linearGradient id="paint43_linear" x1="1012.93" y1="667.93" x2="1211.71" y2="1034.25" gradientUnits="userSpaceOnUse">
<stop stop-color="#FFA585"/>
<stop offset="1" stop-color="#FFEDA0"/>
</linearGradient>
<linearGradient id="paint44_linear" x1="1028.82" y1="696.608" x2="1195.4" y2="1076.7" gradientUnits="userSpaceOnUse">
<stop stop-color="#FFA585"/>
<stop offset="1" stop-color="#FFEDA0"/>
</linearGradient>
<linearGradient id="paint45_linear" x1="1041.98" y1="726.479" x2="1175.81" y2="1117.7" gradientUnits="userSpaceOnUse">
<stop stop-color="#FFA585"/>
<stop offset="1" stop-color="#FFEDA0"/>
</linearGradient>
<linearGradient id="paint46_linear" x1="1052.32" y1="757.313" x2="1153" y2="1157.09" gradientUnits="userSpaceOnUse">
<stop stop-color="#FFA585"/>
<stop offset="1" stop-color="#FFEDA0"/>
</linearGradient>
<linearGradient id="paint47_linear" x1="1059.77" y1="788.878" x2="1127.03" y2="1194.72" gradientUnits="userSpaceOnUse">
<stop stop-color="#FFA585"/>
<stop offset="1" stop-color="#FFEDA0"/>
</linearGradient>
<linearGradient id="paint48_linear" x1="1064.26" y1="820.933" x2="1097.93" y2="1230.38" gradientUnits="userSpaceOnUse">
<stop stop-color="#FFA585"/>
<stop offset="1" stop-color="#FFEDA0"/>
</linearGradient>
<linearGradient id="paint49_linear" x1="1065.76" y1="853.233" x2="1065.76" y2="1263.88" gradientUnits="userSpaceOnUse">
<stop stop-color="#FFA585"/>
<stop offset="1" stop-color="#FFEDA0"/>
</linearGradient>
</defs>
</svg>
